<svg width="24" height="24" viewBox="0 0 24 24" fill="none" xmlns="http://www.w3.org/2000/svg">
<path d="M2 12L7 16V13H16V11H7V8L2 12Z" fill="#4B4B4B"/>
<path d="M13.0007 2.99902C10.5957 2.99902 8.33572 3.93602 6.63672 5.63602L8.05072 7.05002C9.37272 5.72802 11.1307 4.99902 13.0007 4.99902C14.8707 4.99902 16.6287 5.72802 17.9507 7.05002C19.2727 8.37202 20.0017 10.13 20.0017 12C20.0017 13.87 19.2727 15.628 17.9507 16.95C16.6287 18.272 14.8707 19.001 13.0007 19.001C11.1307 19.001 9.37272 18.272 8.05072 16.95L6.63672 18.364C8.33572 20.064 10.5957 21.001 13.0007 21.001C15.4057 21.001 17.6657 20.064 19.3647 18.364C21.0647 16.665 22.0017 14.405 22.0017 12C22.0017 9.59502 21.0647 7.33502 19.3647 5.63602C17.6657 3.93602 15.4057 2.99902 13.0007 2.99902Z" fill="#4B4B4B"/>
</svg>
