<svg width="24" height="24" viewBox="0 0 24 24" fill="none" xmlns="http://www.w3.org/2000/svg">
<path d="M11.7762 21H3.31725C4.30137 19.7508 4.83436 18.2056 4.8297 16.6154V3H17.8794V10.1799C17.8794 10.2794 17.919 10.3748 17.9893 10.4451C18.0596 10.5154 18.155 10.5549 18.2544 10.5549C18.3539 10.5549 18.4493 10.5154 18.5196 10.4451C18.5899 10.3748 18.6294 10.2794 18.6294 10.1799V2.625C18.6295 2.57575 18.6198 2.52698 18.6009 2.48148C18.5821 2.43598 18.5545 2.39463 18.5196 2.35981C18.4848 2.32498 18.4435 2.29736 18.398 2.27852C18.3525 2.25968 18.3037 2.24999 18.2544 2.25H4.4547C4.40545 2.24999 4.35668 2.25968 4.31118 2.27852C4.26568 2.29736 4.22433 2.32498 4.18951 2.35981C4.15468 2.39463 4.12706 2.43598 4.10822 2.48148C4.08938 2.52698 4.07969 2.57575 4.0797 2.625V16.6154C4.08201 17.4504 3.91868 18.2776 3.59916 19.0491C3.27964 19.8205 2.81028 20.521 2.21825 21.1099C2.1658 21.1623 2.13008 21.2291 2.11561 21.3019C2.10113 21.3746 2.10856 21.45 2.13694 21.5185C2.16532 21.587 2.21338 21.6456 2.27505 21.6868C2.33672 21.728 2.40922 21.75 2.48339 21.75H11.7762C11.8756 21.75 11.971 21.7105 12.0413 21.6402C12.1117 21.5698 12.1512 21.4745 12.1512 21.375C12.1512 21.2755 12.1117 21.1802 12.0413 21.1098C11.971 21.0395 11.8756 21 11.7762 21Z" fill="#4B4B4B" stroke="#4B4B4B"/>
<path d="M15.6391 7H7.36087C7.26516 7 7.17337 7.10536 7.10569 7.29289C7.03802 7.48043 7 7.73478 7 8C7 8.26522 7.03802 8.51957 7.10569 8.70711C7.17337 8.89464 7.26516 9 7.36087 9H15.6391C15.7348 9 15.8266 8.89464 15.8943 8.70711C15.962 8.51957 16 8.26522 16 8C16 7.73478 15.962 7.48043 15.8943 7.29289C15.8266 7.10536 15.7348 7 15.6391 7Z" fill="#4B4B4B"/>
<path d="M16 11C16 10.8687 15.9907 10.7386 15.9726 10.6173C15.9544 10.4959 15.9278 10.3857 15.8943 10.2928C15.8608 10.2 15.821 10.1263 15.7772 10.076C15.7335 10.0258 15.6865 9.99997 15.6391 10H7.36087C7.26516 10 7.17337 10.1054 7.10569 10.2929C7.03802 10.4804 7 10.7348 7 11C7 11.2652 7.03802 11.5196 7.10569 11.7071C7.17337 11.8946 7.26516 12 7.36087 12H15.6391C15.6865 12 15.7335 11.9742 15.7772 11.924C15.821 11.8737 15.8608 11.8 15.8943 11.7072C15.9278 11.6143 15.9544 11.5041 15.9726 11.3827C15.9907 11.2614 16 11.1313 16 11Z" fill="#4B4B4B"/>
<path d="M13 14C13 13.8687 12.9897 13.7386 12.9695 13.6173C12.9494 13.4959 12.9199 13.3857 12.8826 13.2928C12.8454 13.2 12.8012 13.1263 12.7526 13.076C12.7039 13.0258 12.6518 13 12.5992 13H7.40082C7.29452 13 7.19257 13.1054 7.1174 13.2929C7.04223 13.4804 7 13.7348 7 14C7 14.2652 7.04223 14.5196 7.1174 14.7071C7.19257 14.8946 7.29452 15 7.40082 15H12.5992C12.6518 15 12.7039 14.9742 12.7526 14.924C12.8012 14.8737 12.8454 14.8 12.8826 14.7072C12.9199 14.6143 12.9494 14.5041 12.9695 14.3827C12.9897 14.2614 13 14.1313 13 14Z" fill="#4B4B4B"/>
<path d="M7.39383 16C7.28938 16 7.18921 16.1054 7.11535 16.2929C7.04149 16.4804 7 16.7348 7 17C7 17.2652 7.04149 17.5196 7.11535 17.7071C7.18921 17.8946 7.28938 18 7.39383 18H10.6062C10.7106 18 10.8108 17.8946 10.8847 17.7071C10.9585 17.5196 11 17.2652 11 17C11 16.7348 10.9585 16.4804 10.8847 16.2929C10.8108 16.1054 10.7106 16 10.6062 16H7.39383Z" fill="#4B4B4B"/>
<path d="M20.4712 13.4743C19.844 12.8459 19.0561 12.4021 18.1937 12.1913C17.3313 11.9804 16.4275 12.0107 15.5811 12.2788C14.7347 12.5469 13.9783 13.0425 13.3946 13.7114C12.8108 14.3803 12.4222 15.1969 12.2711 16.0717L11.9731 15.7737C11.9028 15.7034 11.8074 15.6639 11.708 15.6639C11.6085 15.6639 11.5131 15.7034 11.4428 15.7737C11.3725 15.844 11.333 15.9394 11.333 16.0389C11.333 16.1383 11.3725 16.2337 11.4428 16.304L12.3057 17.1669C12.3763 17.237 12.4717 17.2764 12.5711 17.2764C12.6706 17.2764 12.766 17.237 12.8365 17.1669L13.6996 16.304C13.7699 16.2337 13.8094 16.1383 13.8094 16.0389C13.8094 15.9394 13.7699 15.844 13.6996 15.7737C13.6293 15.7034 13.5339 15.6639 13.4345 15.6639C13.335 15.6639 13.2397 15.7034 13.1693 15.7737L13.0842 15.8589C13.3148 14.987 13.8268 14.2157 14.5407 13.6646C15.2547 13.1136 16.1306 12.8138 17.0324 12.8117C17.9343 12.8095 18.8116 13.1053 19.5281 13.6529C20.2446 14.2005 20.7603 14.9695 20.995 15.8402C21.2297 16.711 21.1702 17.6349 20.826 18.4685C20.4817 19.302 19.8718 19.9986 19.091 20.4499C18.3102 20.9013 17.4023 21.0822 16.5081 20.9646C15.614 20.847 14.7837 20.4374 14.1462 19.7995C14.0759 19.7292 13.9805 19.6897 13.8811 19.6897C13.7816 19.6897 13.6863 19.7292 13.6159 19.7995C13.5456 19.8698 13.5061 19.9652 13.5061 20.0646C13.5061 20.1641 13.5456 20.2594 13.6159 20.3298C14.5252 21.2381 15.7579 21.7482 17.0432 21.7478C18.3284 21.7475 19.5609 21.2368 20.4697 20.328C21.3784 19.4192 21.8891 18.1867 21.8894 16.9015C21.8897 15.6162 21.3796 14.3835 20.4712 13.4743Z" fill="#4B4B4B"/>
<path d="M17.0439 13.6553C16.9947 13.6553 16.9459 13.665 16.9004 13.6838C16.8549 13.7026 16.8136 13.7303 16.7788 13.7651C16.7439 13.7999 16.7163 13.8412 16.6975 13.8868C16.6786 13.9323 16.6689 13.981 16.6689 14.0303V16.9021C16.6695 17.0016 16.7091 17.0969 16.7791 17.1676L18.1382 18.5266C18.2087 18.5962 18.3038 18.6351 18.4028 18.6347C18.5018 18.6344 18.5967 18.5949 18.6667 18.5249C18.7368 18.4549 18.7762 18.36 18.7766 18.261C18.7769 18.162 18.738 18.0668 18.6685 17.9964L17.4189 16.7469V14.0303C17.419 13.981 17.4093 13.9323 17.3904 13.8868C17.3716 13.8412 17.344 13.7999 17.3091 13.7651C17.2743 13.7303 17.233 13.7026 17.1875 13.6838C17.142 13.665 17.0932 13.6553 17.0439 13.6553Z" fill="#4B4B4B"/>
</svg>
