<svg width="24" height="24" viewBox="0 0 24 24" fill="none" xmlns="http://www.w3.org/2000/svg">
<path d="M16.5105 1.013V0H7.4895V1.013H2V24H22V1.013H16.5105ZM20 21H4V3H7.4895V4.5H16.5105V3H20V21Z" fill="#4B4B4B"/>
<path d="M18.0186 8.58984L15.4786 11.1298L15.4831 11.1333L12.0206 14.5958L9.04508 11.6198L8.08008 12.5858L11.4911 15.9968L11.4881 15.9998L12.0106 16.5223L12.0146 16.5193L12.0176 16.5223L12.2511 16.2898L12.2531 16.2918L16.4476 12.0978L18.9866 9.55784L18.0186 8.58984Z" fill="#4B4B4B"/>
<path d="M8.95319 14.4823L5.9777 11.5068L5.0127 12.4708L8.42369 15.8833L8.42069 15.8858L8.9437 16.4083L8.9472 16.4053L8.94969 16.4083L9.18269 16.1763L9.18519 16.1778L9.92219 15.4408L8.95819 14.4768L8.95319 14.4823Z" fill="#4B4B4B"/>
<path d="M11.9894 13.3746L13.3799 11.9846L15.9194 9.44506L14.9509 8.47656L12.4114 11.0166L12.4149 11.0196L11.0254 12.4111L11.9894 13.3746Z" fill="#4B4B4B"/>
</svg>
