<svg width="24" height="24" viewBox="0 0 24 24" fill="none" xmlns="http://www.w3.org/2000/svg">
<mask id="path-1-inside-1_44_26754" fill="white">
<path d="M17.459 6.51922L14.0307 3.09074C13.4916 2.55298 12.7613 2.25098 11.9999 2.25098C11.2384 2.25098 10.5081 2.55298 9.96904 3.09074L6.54039 6.51921C6.13773 6.92204 5.82227 7.68413 5.82227 8.25358V20.514C5.82266 20.8416 5.95296 21.1556 6.1846 21.3872C6.41623 21.6189 6.73028 21.7492 7.05786 21.7496H16.9419C17.2694 21.7491 17.5834 21.6188 17.815 21.3872C18.0466 21.1556 18.1769 20.8415 18.1773 20.514V8.25359C18.1773 7.68377 17.8618 6.92205 17.459 6.51922ZM17.4273 20.514C17.4272 20.6427 17.376 20.7661 17.285 20.8571C17.194 20.9482 17.0706 20.9994 16.9419 20.9996H7.05785C6.92911 20.9994 6.80569 20.9482 6.71466 20.8572C6.62363 20.7661 6.57242 20.6427 6.57225 20.514V8.25359C6.57225 7.87786 6.80534 7.31536 7.07085 7.04949L10.4993 3.62103C10.8976 3.22376 11.4373 3.00066 11.9999 3.00066C12.5624 3.00066 13.1021 3.22376 13.5004 3.62103L16.9287 7.04949C17.1944 7.315 17.4273 7.87786 17.4273 8.25359L17.4273 20.514Z"/>
</mask>
<path d="M17.459 6.51922L14.0307 3.09074C13.4916 2.55298 12.7613 2.25098 11.9999 2.25098C11.2384 2.25098 10.5081 2.55298 9.96904 3.09074L6.54039 6.51921C6.13773 6.92204 5.82227 7.68413 5.82227 8.25358V20.514C5.82266 20.8416 5.95296 21.1556 6.1846 21.3872C6.41623 21.6189 6.73028 21.7492 7.05786 21.7496H16.9419C17.2694 21.7491 17.5834 21.6188 17.815 21.3872C18.0466 21.1556 18.1769 20.8415 18.1773 20.514V8.25359C18.1773 7.68377 17.8618 6.92205 17.459 6.51922ZM17.4273 20.514C17.4272 20.6427 17.376 20.7661 17.285 20.8571C17.194 20.9482 17.0706 20.9994 16.9419 20.9996H7.05785C6.92911 20.9994 6.80569 20.9482 6.71466 20.8572C6.62363 20.7661 6.57242 20.6427 6.57225 20.514V8.25359C6.57225 7.87786 6.80534 7.31536 7.07085 7.04949L10.4993 3.62103C10.8976 3.22376 11.4373 3.00066 11.9999 3.00066C12.5624 3.00066 13.1021 3.22376 13.5004 3.62103L16.9287 7.04949C17.1944 7.315 17.4273 7.87786 17.4273 8.25359L17.4273 20.514Z" fill="#4B4B4B"/>
<path d="M17.459 6.51922L11.802 12.1759L11.8021 12.176L17.459 6.51922ZM14.0307 3.09074L19.6877 -2.56596L19.6807 -2.57289L14.0307 3.09074ZM11.9999 2.25098V-5.74902V2.25098ZM9.96904 3.09074L4.31897 -2.5729L4.31234 -2.56626L9.96904 3.09074ZM6.54039 6.51921L0.883687 0.862205L0.882286 0.863607L6.54039 6.51921ZM5.82227 20.514L-2.17774 20.514L-2.17773 20.5236L5.82227 20.514ZM7.05786 21.7496L7.04826 29.7496H7.05786V21.7496ZM16.9419 21.7496V29.7496L16.9523 29.7496L16.9419 21.7496ZM18.1773 20.514L26.1773 20.5232V20.514H18.1773ZM17.4273 20.514L25.4273 20.5217L25.4273 20.514L17.4273 20.514ZM16.9419 20.9996V28.9996L16.9526 28.9996L16.9419 20.9996ZM7.05785 20.9996L7.0476 28.9996H7.05785V20.9996ZM6.57225 20.514L-1.42775 20.514L-1.42774 20.5242L6.57225 20.514ZM7.07085 7.04949L1.41398 1.39264L1.4101 1.39653L7.07085 7.04949ZM10.4993 3.62103L4.85009 -2.04347L4.84244 -2.03582L10.4993 3.62103ZM11.9999 3.00066V11.0007V3.00066ZM13.5004 3.62103L19.1574 -2.03567L19.1496 -2.04346L13.5004 3.62103ZM16.9287 7.04949L11.2717 12.7062L11.2738 12.7083L16.9287 7.04949ZM17.4273 8.25359H9.42727V8.25361L17.4273 8.25359ZM23.116 0.862524L19.6877 -2.56595L8.37367 8.74744L11.802 12.1759L23.116 0.862524ZM19.6807 -2.57289C17.642 -4.6068 14.8797 -5.74902 11.9999 -5.74902V10.251C10.6429 10.251 9.34131 9.71276 8.38063 8.75438L19.6807 -2.57289ZM11.9999 -5.74902C9.12003 -5.74902 6.35777 -4.6068 4.31898 -2.57289L15.6191 8.75438C14.6584 9.71276 13.3568 10.251 11.9999 10.251V-5.74902ZM4.31234 -2.56626L0.883687 0.862205L12.1971 12.1762L15.6257 8.74775L4.31234 -2.56626ZM0.882286 0.863607C-0.2566 2.003 -0.951182 3.27332 -1.3612 4.26364C-1.77123 5.254 -2.17773 6.64318 -2.17773 8.25358H13.8223C13.8223 9.29454 13.5735 10.0179 13.4219 10.3842C13.2702 10.7504 12.9347 11.4383 12.1985 12.1748L0.882286 0.863607ZM-2.17773 8.25358V20.514H13.8223V8.25358H-2.17773ZM-2.17773 20.5236C-2.17479 22.9696 -1.20183 25.3145 0.527744 27.0441L11.8415 15.7304C13.1078 16.9967 13.8201 18.7135 13.8223 20.5044L-2.17773 20.5236ZM0.527744 27.0441C2.25733 28.7737 4.60229 29.7466 7.04826 29.7496L7.06747 13.7496C8.85828 13.7517 10.5751 14.4641 11.8415 15.7304L0.527744 27.0441ZM7.05786 29.7496H16.9419V13.7496H7.05786V29.7496ZM16.9523 29.7496C19.3982 29.7464 21.7429 28.7732 23.4723 27.0436L12.1578 15.7308C13.4239 14.4644 15.1407 13.7519 16.9314 13.7496L16.9523 29.7496ZM23.4723 27.0436C25.2017 25.314 26.1745 22.9691 26.1773 20.5232L10.1773 20.5047C10.1794 18.7139 10.8916 16.9971 12.1578 15.7308L23.4723 27.0436ZM26.1773 20.514V8.25359H10.1773V20.514H26.1773ZM26.1773 8.25359C26.1773 6.64319 25.7709 5.25382 25.3603 4.26257C24.9498 3.2714 24.2548 2.00135 23.1159 0.862398L11.8021 12.176C11.066 11.4399 10.7301 10.7521 10.5781 10.385C10.426 10.0178 10.1773 9.29418 10.1773 8.25359H26.1773ZM9.4273 20.5063C9.42921 18.5165 10.2203 16.6087 11.6271 15.2013L22.9429 26.5129C24.5317 24.9236 25.4251 22.7689 25.4273 20.5217L9.4273 20.5063ZM11.6271 15.2013C13.0338 13.794 14.9414 13.0022 16.9312 12.9996L16.9526 28.9996C19.1998 28.9965 21.3541 28.1023 22.9429 26.5129L11.6271 15.2013ZM16.9419 12.9996H7.05785V28.9996H16.9419V12.9996ZM7.0681 12.9996C9.05755 13.0021 10.9648 13.7936 12.3715 15.2003L1.05781 26.514C2.64661 28.1028 4.80067 28.9967 7.0476 28.9996L7.0681 12.9996ZM12.3715 15.2003C13.7783 16.6071 14.5697 18.5143 14.5722 20.5037L-1.42774 20.5242C-1.42486 22.7711 -0.531004 24.9252 1.05781 26.514L12.3715 15.2003ZM14.5723 20.514V8.25359H-1.42775V20.514H14.5723ZM14.5723 8.25359C14.5723 8.93895 14.4727 9.47042 14.3973 9.78894C14.3159 10.1321 14.2153 10.4249 14.1131 10.6716C14.0109 10.9183 13.8752 11.1961 13.6905 11.4957C13.5191 11.7738 13.2146 12.2188 12.7316 12.7025L1.4101 1.39653C0.283746 2.52444 -0.340484 3.75558 -0.669148 4.54911C-0.997592 5.34212 -1.42775 6.65625 -1.42775 8.25359H14.5723ZM12.7277 12.7063L16.1562 9.27787L4.84244 -2.03582L1.41398 1.39265L12.7277 12.7063ZM16.1485 9.28551C15.0472 10.3839 13.5553 11.0007 11.9999 11.0007V-4.99934C9.31928 -4.99934 6.7481 -3.93635 4.85009 -2.04346L16.1485 9.28551ZM11.9999 11.0007C10.4444 11.0007 8.95251 10.3839 7.85119 9.28551L19.1496 -2.04346C17.2516 -3.93635 14.6804 -4.99934 11.9999 -4.99934V11.0007ZM7.84339 9.27772L11.2717 12.7062L22.5857 1.3928L19.1574 -2.03567L7.84339 9.27772ZM11.2738 12.7083C10.7879 12.2227 10.4818 11.7755 10.3097 11.4965C10.1242 11.1959 9.98824 10.9173 9.88599 10.6703C9.78372 10.4232 9.68316 10.1304 9.60196 9.78748C9.52661 9.46921 9.42727 8.93827 9.42727 8.25359H25.4273C25.4273 6.65759 24.9979 5.34403 24.6692 4.55016C24.3409 3.75697 23.7153 2.52159 22.5836 1.39069L11.2738 12.7083ZM9.42727 8.25361L9.42729 20.514L25.4273 20.514L25.4273 8.25358L9.42727 8.25361Z" fill="#4B4B4B" mask="url(#path-1-inside-1_44_26754)"/>
<path d="M10.3506 13.7531C10.6177 13.7531 10.8788 13.6738 11.1008 13.5254C11.3229 13.377 11.496 13.1661 11.5982 12.9193C11.7005 12.6726 11.7272 12.401 11.6752 12.1391C11.6232 11.8771 11.4946 11.6364 11.3058 11.4475H11.3057C10.7952 10.9366 9.90529 10.937 9.39552 11.4475C9.20665 11.6364 9.07804 11.877 9.02594 12.139C8.97384 12.401 9.0006 12.6726 9.10282 12.9194C9.20505 13.1661 9.37816 13.3771 9.60026 13.5255C9.82236 13.6739 10.0835 13.7531 10.3506 13.7531ZM9.92577 11.9777C9.98148 11.9217 10.0477 11.8772 10.1206 11.8468C10.1936 11.8164 10.2718 11.8007 10.3508 11.8006C10.4298 11.8004 10.5081 11.8159 10.5811 11.8461C10.6541 11.8763 10.7205 11.9205 10.7764 11.9764C10.8322 12.0323 10.8765 12.0986 10.9067 12.1716C10.937 12.2446 10.9525 12.3229 10.9524 12.4019C10.9523 12.4809 10.9366 12.5591 10.9062 12.6321C10.8759 12.705 10.8314 12.7712 10.7754 12.827C10.661 12.9363 10.5088 12.9973 10.3506 12.9973C10.1923 12.9973 10.0402 12.9363 9.92577 12.827C9.81338 12.7142 9.75026 12.5615 9.75026 12.4024C9.75026 12.2432 9.81338 12.0905 9.92577 11.9777Z" fill="#4B4B4B"/>
<path d="M11.9995 6.40052C12.2572 6.40082 12.5093 6.32461 12.7237 6.18156C12.9381 6.03851 13.1052 5.83505 13.2039 5.59695C13.3026 5.35884 13.3285 5.0968 13.2781 4.84401C13.2278 4.59122 13.1036 4.35904 12.9212 4.17689H12.921C12.4285 3.68434 11.5697 3.68471 11.0783 4.17689C10.8959 4.35901 10.7717 4.59113 10.7214 4.84387C10.671 5.09661 10.6968 5.35861 10.7954 5.59669C10.8941 5.83478 11.0611 6.03825 11.2755 6.18134C11.4898 6.32443 11.7418 6.40071 11.9995 6.40052ZM11.6087 4.70716C11.6992 4.61681 11.8182 4.56063 11.9455 4.54819C12.0728 4.53575 12.2004 4.56782 12.3067 4.63894C12.413 4.71005 12.4913 4.81581 12.5284 4.9382C12.5654 5.0606 12.5589 5.19205 12.5099 5.31017C12.4609 5.42829 12.3725 5.52577 12.2597 5.586C12.1469 5.64623 12.0167 5.6655 11.8913 5.64051C11.7659 5.61552 11.653 5.54782 11.5719 5.44895C11.4908 5.35008 11.4465 5.22615 11.4465 5.09827C11.4463 5.02559 11.4606 4.9536 11.4884 4.88647C11.5163 4.81933 11.5572 4.75839 11.6087 4.70716Z" fill="#4B4B4B"/>
<path d="M12.6935 14.7458C12.5046 14.9347 12.376 15.1754 12.3238 15.4374C12.2717 15.6994 12.2984 15.9711 12.4007 16.2179C12.5029 16.4647 12.676 16.6757 12.8982 16.8241C13.1203 16.9726 13.3815 17.0518 13.6486 17.0518C13.9158 17.0518 14.177 16.9726 14.3991 16.8241C14.6212 16.6757 14.7944 16.4647 14.8966 16.2179C14.9988 15.9711 15.0256 15.6994 14.9734 15.4374C14.9213 15.1754 14.7926 14.9347 14.6037 14.7458C14.4788 14.6194 14.3301 14.519 14.1662 14.4505C14.0022 14.382 13.8263 14.3467 13.6486 14.3467C13.4709 14.3467 13.295 14.382 13.1311 14.4505C12.9671 14.519 12.8184 14.6194 12.6935 14.7458ZM14.0734 16.1257C13.9751 16.224 13.8458 16.2851 13.7075 16.2987C13.5692 16.3124 13.4304 16.2776 13.3149 16.2004C13.1993 16.1232 13.1141 16.0083 13.0738 15.8753C13.0334 15.7423 13.0405 15.5994 13.0936 15.471C13.1468 15.3426 13.2429 15.2366 13.3655 15.1711C13.488 15.1056 13.6295 15.0846 13.7659 15.1117C13.9022 15.1388 14.0249 15.2123 14.113 15.3198C14.2012 15.4272 14.2494 15.5619 14.2494 15.7009C14.2492 15.8602 14.186 16.0129 14.0734 16.1257Z" fill="#4B4B4B"/>
<path d="M14.6278 11.4243C14.593 11.3895 14.5517 11.3619 14.5062 11.343C14.4607 11.3242 14.4119 11.3145 14.3627 11.3145C14.3134 11.3145 14.2647 11.3242 14.2192 11.343C14.1737 11.3619 14.1324 11.3895 14.0976 11.4243L9.37252 16.1492C9.3377 16.184 9.31008 16.2253 9.29124 16.2708C9.27239 16.3163 9.2627 16.3651 9.2627 16.4143C9.2627 16.4635 9.27239 16.5123 9.29124 16.5578C9.31008 16.6033 9.3377 16.6446 9.37252 16.6794C9.40734 16.7143 9.44867 16.7419 9.49416 16.7607C9.53966 16.7796 9.58841 16.7893 9.63766 16.7893C9.6869 16.7893 9.73565 16.7796 9.78115 16.7607C9.82664 16.7419 9.86797 16.7143 9.90279 16.6794L14.6278 11.9546C14.6627 11.9198 14.6903 11.8784 14.7091 11.833C14.728 11.7875 14.7377 11.7387 14.7377 11.6895C14.7377 11.6402 14.728 11.5914 14.7091 11.546C14.6903 11.5005 14.6627 11.4591 14.6278 11.4243Z" fill="#4B4B4B"/>
</svg>
