<svg width="24" height="24" viewBox="0 0 24 24" fill="none" xmlns="http://www.w3.org/2000/svg">
<path d="M12 16C14.206 16 16 14.206 16 12C16 9.794 14.206 8 12 8C9.794 8 8 9.794 8 12C8 14.206 9.794 16 12 16ZM12 10C13.084 10 14 10.916 14 12C14 13.084 13.084 14 12 14C10.916 14 10 13.084 10 12C10 10.916 10.916 10 12 10Z" fill="#4B4B4B"/>
<path d="M2.84523 16.136L3.84523 17.866C4.37623 18.783 5.65423 19.127 6.57523 18.596L7.10423 18.29C7.68623 18.747 8.32523 19.122 9.00023 19.402V20C9.00023 21.103 9.89723 22 11.0002 22H13.0002C14.1032 22 15.0002 21.103 15.0002 20V19.402C15.6752 19.122 16.3142 18.747 16.8962 18.291L17.4252 18.597C18.3482 19.127 19.6232 18.785 20.1562 17.866L21.1552 16.137C21.7072 15.182 21.3792 13.956 20.4242 13.405L19.9192 13.113C19.9732 12.742 20.0002 12.371 20.0002 12C20.0002 11.629 19.9732 11.257 19.9192 10.889L20.4242 10.597C21.3792 10.045 21.7072 8.82 21.1552 7.865L20.1562 6.136C19.6252 5.216 18.3482 4.871 17.4252 5.404L16.8962 5.71C16.3142 5.253 15.6752 4.878 15.0002 4.598V4C15.0002 2.897 14.1032 2 13.0002 2H11.0002C9.89723 2 9.00023 2.897 9.00023 4V4.598C8.32523 4.878 7.68623 5.253 7.10423 5.709L6.57523 5.403C5.65123 4.872 4.37523 5.216 3.84423 6.135L2.84523 7.864C2.29323 8.819 2.62123 10.045 3.57623 10.596L4.08123 10.888C4.02723 11.257 4.00023 11.629 4.00023 12C4.00023 12.371 4.02723 12.742 4.08123 13.111L3.57623 13.403C2.62123 13.955 2.29323 15.181 2.84523 16.136ZM6.17123 13.378C6.05823 12.925 6.00023 12.461 6.00023 12C6.00023 11.538 6.05823 11.074 6.17023 10.622C6.27823 10.189 6.08723 9.737 5.70023 9.514L4.57723 8.864L5.57523 7.135L6.72023 7.797C7.10423 8.018 7.58723 7.962 7.90823 7.655C8.59123 7.008 9.41523 6.524 10.2922 6.256C10.7132 6.128 11.0002 5.739 11.0002 5.3V4H13.0002V5.3C13.0002 5.739 13.2872 6.128 13.7082 6.256C14.5852 6.525 15.4092 7.008 16.0922 7.655C16.4132 7.962 16.8982 8.017 17.2802 7.797L18.4242 7.136L19.4242 8.865L18.3002 9.514C17.9132 9.738 17.7222 10.19 17.8302 10.622C17.9422 11.074 18.0002 11.538 18.0002 12C18.0002 12.461 17.9422 12.925 17.8292 13.378C17.7222 13.811 17.9132 14.263 18.3002 14.486L19.4232 15.135L18.4252 16.864L17.2802 16.203C16.8972 15.982 16.4132 16.037 16.0922 16.345C15.4092 16.992 14.5852 17.476 13.7082 17.744C13.2872 17.872 13.0002 18.261 13.0002 18.7L13.0022 20H11.0002V18.7C11.0002 18.261 10.7132 17.872 10.2922 17.744C9.41523 17.475 8.59123 16.992 7.90823 16.345C7.71823 16.163 7.47023 16.07 7.22023 16.07C7.04823 16.07 6.87623 16.114 6.72023 16.204L5.57623 16.866L4.57623 15.137L5.70023 14.486C6.08723 14.263 6.27823 13.811 6.17123 13.378Z" fill="#4B4B4B"/>
</svg>
