<svg width="24" height="24" viewBox="0 0 24 24" fill="none" xmlns="http://www.w3.org/2000/svg">
<path d="M21.7499 4.5H18.7499C18.551 4.5 18.3602 4.57902 18.2195 4.71967C18.0789 4.86032 17.9999 5.05109 17.9999 5.25C17.9999 5.44891 18.0789 5.63968 18.2195 5.78033C18.3602 5.92098 18.551 6 18.7499 6H20.0121L11.9024 15.4613L8.71861 12.9113C8.58123 12.8013 8.40958 12.7432 8.23368 12.747C8.05777 12.7509 7.88882 12.8164 7.75636 12.9323L1.75636 18.1823C1.60658 18.3132 1.51497 18.4984 1.50168 18.6969C1.48839 18.8954 1.5545 19.0911 1.68549 19.2409C1.81647 19.3907 2.00159 19.4823 2.20012 19.4956C2.39865 19.5089 2.59433 19.4427 2.74411 19.3118L8.27161 14.475L11.5319 17.0835C11.6838 17.2049 11.8771 17.2626 12.0707 17.2442C12.2644 17.2259 12.4434 17.133 12.5699 16.9852L20.9999 7.15275V8.25C20.9999 8.44891 21.0789 8.63968 21.2195 8.78033C21.3602 8.92098 21.551 9 21.7499 9C21.9488 9 22.1395 8.92098 22.2802 8.78033C22.4208 8.63968 22.4999 8.44891 22.4999 8.25V5.25C22.4999 5.05109 22.4208 4.86032 22.2802 4.71967C22.1395 4.57902 21.9488 4.5 21.7499 4.5Z" fill="#4B4B4B"/>
<path d="M4.5 19.5C4.30109 19.5 4.11032 19.579 3.96967 19.7197C3.82902 19.8603 3.75 20.0511 3.75 20.25V21.75C3.75 21.9489 3.82902 22.1397 3.96967 22.2803C4.11032 22.421 4.30109 22.5 4.5 22.5C4.69891 22.5 4.88968 22.421 5.03033 22.2803C5.17098 22.1397 5.25 21.9489 5.25 21.75V20.25C5.25 20.0511 5.17098 19.8603 5.03033 19.7197C4.88968 19.579 4.69891 19.5 4.5 19.5Z" fill="#4B4B4B"/>
<path d="M8.25 16.5C8.05109 16.5 7.86032 16.579 7.71967 16.7197C7.57902 16.8603 7.5 17.0511 7.5 17.25V21.75C7.5 21.9489 7.57902 22.1397 7.71967 22.2803C7.86032 22.421 8.05109 22.5 8.25 22.5C8.44891 22.5 8.63968 22.421 8.78033 22.2803C8.92098 22.1397 9 21.9489 9 21.75V17.25C9 17.0511 8.92098 16.8603 8.78033 16.7197C8.63968 16.579 8.44891 16.5 8.25 16.5Z" fill="#4B4B4B"/>
<path d="M12 18.75C11.8011 18.75 11.6103 18.829 11.4697 18.9697C11.329 19.1103 11.25 19.3011 11.25 19.5V21.75C11.25 21.9489 11.329 22.1397 11.4697 22.2803C11.6103 22.421 11.8011 22.5 12 22.5C12.1989 22.5 12.3897 22.421 12.5303 22.2803C12.671 22.1397 12.75 21.9489 12.75 21.75V19.5C12.75 19.3011 12.671 19.1103 12.5303 18.9697C12.3897 18.829 12.1989 18.75 12 18.75Z" fill="#4B4B4B"/>
<path d="M15.75 15.75C15.5511 15.75 15.3603 15.829 15.2197 15.9697C15.079 16.1103 15 16.3011 15 16.5V21.75C15 21.9489 15.079 22.1397 15.2197 22.2803C15.3603 22.421 15.5511 22.5 15.75 22.5C15.9489 22.5 16.1397 22.421 16.2803 22.2803C16.421 22.1397 16.5 21.9489 16.5 21.75V16.5C16.5 16.3011 16.421 16.1103 16.2803 15.9697C16.1397 15.829 15.9489 15.75 15.75 15.75Z" fill="#4B4B4B"/>
<path d="M19.5 11.25C19.3011 11.25 19.1103 11.329 18.9697 11.4697C18.829 11.6103 18.75 11.8011 18.75 12V21.75C18.75 21.9489 18.829 22.1397 18.9697 22.2803C19.1103 22.421 19.3011 22.5 19.5 22.5C19.6989 22.5 19.8897 22.421 20.0303 22.2803C20.171 22.1397 20.25 21.9489 20.25 21.75V12C20.25 11.8011 20.171 11.6103 20.0303 11.4697C19.8897 11.329 19.6989 11.25 19.5 11.25Z" fill="#4B4B4B"/>
</svg>
