<svg width="24" height="24" viewBox="0 0 24 24" fill="none" xmlns="http://www.w3.org/2000/svg">
<path d="M18.0003 22.0001C17.7351 22.0001 17.4807 21.8947 17.2932 21.7072C17.1057 21.5197 17.0003 21.2653 17.0003 21.0001C16.9959 20.9368 16.9959 20.8733 17.0003 20.8101L18.7803 12.0001H16.6203L15.9003 13.4501C15.8164 13.6165 15.6877 13.7562 15.5287 13.8534C15.3697 13.9506 15.1867 14.0014 15.0003 14.0001H9.00031C8.81395 14.0014 8.63093 13.9506 8.4719 13.8534C8.31288 13.7562 8.18417 13.6165 8.10031 13.4501L7.38031 12.0001H5.22031L6.82031 20.0001H14.0003C14.2655 20.0001 14.5199 20.1054 14.7074 20.293C14.895 20.4805 15.0003 20.7349 15.0003 21.0001C15.0003 21.2653 14.895 21.5197 14.7074 21.7072C14.5199 21.8947 14.2655 22.0001 14.0003 22.0001H6.00031C5.76637 22.0048 5.53817 21.9273 5.35545 21.7812C5.17273 21.635 5.04706 21.4294 5.00031 21.2001L3.00031 11.2001C2.97169 11.0548 2.97568 10.905 3.01199 10.7615C3.04831 10.6179 3.11605 10.4843 3.21031 10.3701C3.30548 10.2527 3.42601 10.1585 3.56284 10.0944C3.69967 10.0303 3.84923 9.99807 4.00031 10.0001H8.00031C8.18668 9.99879 8.36969 10.0496 8.52872 10.1468C8.68775 10.244 8.81645 10.3837 8.90031 10.5501L9.62031 12.0001H14.3803L15.1003 10.5501C15.1842 10.3837 15.3129 10.244 15.4719 10.1468C15.6309 10.0496 15.8139 9.99879 16.0003 10.0001H20.0003C20.148 10.0011 20.2937 10.0348 20.4268 10.0987C20.5599 10.1627 20.6773 10.2554 20.7703 10.3701C20.8646 10.4843 20.9323 10.6179 20.9686 10.7615C21.0049 10.905 21.0089 11.0548 20.9803 11.2001L18.9803 21.2001C18.9342 21.426 18.8115 21.629 18.6329 21.7748C18.4543 21.9205 18.2308 22.0001 18.0003 22.0001Z" fill="#4B4B4B"/>
<path d="M8.00022 9.0001C7.76656 9.00056 7.54013 8.91918 7.36022 8.7701L6.15022 7.7701C5.9357 7.59967 5.76243 7.383 5.64333 7.13626C5.52423 6.88952 5.46237 6.61908 5.46237 6.3451C5.46237 6.07112 5.52423 5.80068 5.64333 5.55394C5.76243 5.3072 5.9357 5.09053 6.15022 4.9201L6.44022 4.6801L5.36022 3.7801C5.25844 3.69605 5.17422 3.59278 5.11235 3.47619C5.05049 3.35959 5.0122 3.23195 4.99966 3.10056C4.98712 2.96916 5.00059 2.83659 5.03929 2.7104C5.07799 2.58421 5.14117 2.46687 5.22522 2.3651C5.30926 2.26333 5.41253 2.1791 5.52913 2.11724C5.64572 2.05537 5.77336 2.01708 5.90476 2.00454C6.03615 1.99201 6.16873 2.00547 6.29492 2.04418C6.42111 2.08288 6.53844 2.14605 6.64022 2.2301L7.85022 3.2301C8.06473 3.40053 8.238 3.6172 8.3571 3.86394C8.4762 4.11068 8.53806 4.38112 8.53806 4.6551C8.53806 4.92908 8.4762 5.19952 8.3571 5.44626C8.238 5.693 8.06473 5.90967 7.85022 6.0801L7.56022 6.3201L8.64022 7.2201C8.74148 7.30405 8.82518 7.40715 8.88653 7.5235C8.94788 7.63984 8.98568 7.76715 8.99775 7.89813C9.00983 8.0291 8.99595 8.16118 8.9569 8.28678C8.91786 8.41238 8.85442 8.52905 8.77022 8.6301C8.67716 8.74481 8.55985 8.83749 8.42672 8.90146C8.29358 8.96544 8.14792 8.99912 8.00022 9.0001Z" fill="#4B4B4B"/>
<path d="M13.0003 9.00004C12.7666 9.0005 12.5402 8.91912 12.3603 8.77004L11.1503 7.77004C10.9358 7.59961 10.7625 7.38294 10.6434 7.1362C10.5243 6.88947 10.4624 6.61902 10.4624 6.34504C10.4624 6.07106 10.5243 5.80062 10.6434 5.55388C10.7625 5.30714 10.9358 5.09047 11.1503 4.92004L11.4403 4.68004L10.3603 3.78004C10.1561 3.6103 10.0276 3.36639 10.0033 3.10196C9.97888 2.83754 10.0605 2.57426 10.2303 2.37004C10.4 2.16582 10.6439 2.0374 10.9084 2.01302C11.1728 1.98864 11.4361 2.0703 11.6403 2.24004L12.8503 3.24004C13.0648 3.41047 13.2381 3.62714 13.3572 3.87388C13.4763 4.12062 13.5381 4.39106 13.5381 4.66504C13.5381 4.93902 13.4763 5.20947 13.3572 5.4562C13.2381 5.70294 13.0648 5.91961 12.8503 6.09004L12.5603 6.33004L13.6403 7.23004C13.7415 7.31399 13.8252 7.41709 13.8866 7.53344C13.9479 7.64979 13.9857 7.77709 13.9978 7.90807C14.0099 8.03905 13.996 8.17112 13.957 8.29672C13.9179 8.42233 13.8545 8.53899 13.7703 8.64004C13.6763 8.75292 13.5585 8.8437 13.4254 8.90592C13.2923 8.96815 13.1472 9.00028 13.0003 9.00004Z" fill="#4B4B4B"/>
<path d="M18.0003 9.00004C17.7666 9.0005 17.5402 8.91912 17.3603 8.77004L16.1503 7.77004C15.9358 7.59961 15.7625 7.38294 15.6434 7.1362C15.5243 6.88947 15.4624 6.61902 15.4624 6.34504C15.4624 6.07106 15.5243 5.80062 15.6434 5.55388C15.7625 5.30714 15.9358 5.09047 16.1503 4.92004L16.4403 4.68004L15.3603 3.78004C15.1561 3.6103 15.0276 3.36639 15.0033 3.10196C14.9789 2.83754 15.0605 2.57426 15.2303 2.37004C15.4 2.16582 15.6439 2.0374 15.9084 2.01302C16.1728 1.98864 16.4361 2.0703 16.6403 2.24004L17.8503 3.24004C18.0648 3.41047 18.2381 3.62714 18.3572 3.87388C18.4763 4.12062 18.5381 4.39106 18.5381 4.66504C18.5381 4.93902 18.4763 5.20947 18.3572 5.4562C18.2381 5.70294 18.0648 5.91961 17.8503 6.09004L17.5603 6.33004L18.6403 7.23004C18.7415 7.31399 18.8252 7.41709 18.8866 7.53344C18.9479 7.64979 18.9857 7.77709 18.9978 7.90807C19.0099 8.03905 18.996 8.17112 18.957 8.29672C18.9179 8.42233 18.8545 8.53899 18.7703 8.64004C18.6763 8.75292 18.5585 8.8437 18.4254 8.90592C18.2923 8.96815 18.1472 9.00028 18.0003 9.00004Z" fill="#4B4B4B"/>
</svg>
