<svg width="24" height="40" viewBox="0 0 24 40" fill="none" xmlns="http://www.w3.org/2000/svg">
<g clip-path="url(#clip0_165_20543)">
<path d="M22.4151 5.0756H21.9799L21.5799 3.7432C21.2671 2.7008 20.3259 2 19.2371 2H4.76267C3.67387 2 2.73227 2.7008 2.41947 3.7432L2.01947 5.0756H1.58387C0.70867 5.0756 -0.00292969 5.7876 -0.00292969 6.6624V8.5428C-0.00292969 8.7592 0.17227 8.9344 0.38867 8.9344H1.10027L3.06747 36.5256C3.12707 37.3528 3.82227 38 4.65107 38H19.3487C20.1775 38 20.8727 37.3528 20.9315 36.526L22.8987 8.9344H23.6103C23.8267 8.9344 24.0019 8.7592 24.0019 8.5428V6.6624C24.0023 5.7876 23.2903 5.0756 22.4151 5.0756ZM3.16987 3.9684C3.38227 3.2596 4.02267 2.7832 4.76267 2.7832H19.2367C19.9767 2.7832 20.6171 3.2596 20.8295 3.9684L21.1619 5.0756H2.83787L3.16987 3.9684ZM19.3487 37.2168H4.65107C4.23147 37.2168 3.87907 36.8888 3.84947 36.47L3.77787 35.4684H20.2219L20.1503 36.4704C20.1207 36.8888 19.7683 37.2168 19.3487 37.2168ZM20.2775 34.6856H3.72227L1.88627 8.9348H22.1139L20.2775 34.6856ZM23.2191 8.1516H22.5343H1.46547H0.78067V6.6628C0.78067 6.2196 1.14107 5.8592 1.58427 5.8592H2.31107H21.6879H22.4147C22.8579 5.8592 23.2183 6.2196 23.2183 6.6628V8.1516H23.2191Z" fill="#4B4B4B"/>
<path d="M12.0001 29.5089C16.5649 29.5089 20.2785 25.7953 20.2785 21.2305C20.2785 16.6657 16.5649 12.9521 12.0001 12.9521C7.43528 12.9521 3.72168 16.6657 3.72168 21.2305C3.72168 25.7953 7.43528 29.5089 12.0001 29.5089ZM12.0001 13.7353C16.1333 13.7353 19.4953 17.0977 19.4953 21.2305C19.4953 25.3633 16.1333 28.7257 12.0001 28.7257C7.86688 28.7257 4.50488 25.3633 4.50488 21.2305C4.50488 17.0977 7.86688 13.7353 12.0001 13.7353Z" fill="#4B4B4B"/>
<path d="M11.9999 27.1766C12.0003 27.1766 12.0003 27.1766 11.9999 27.1766C14.4291 27.1762 16.4051 24.509 16.4051 21.2306C16.4051 17.9718 14.4523 15.3194 12.0435 15.2874C12.0415 15.287 12.0399 15.2874 12.0379 15.287C12.0251 15.287 12.0127 15.2842 11.9999 15.2842C9.57113 15.2842 7.59473 17.9518 7.59473 21.2306C7.59473 24.5094 9.57113 27.1766 11.9999 27.1766ZM15.6219 21.2306C15.6219 23.5506 14.5423 25.5174 13.0619 26.1662C13.3939 25.6754 13.7099 25.0106 13.7519 24.2142C13.8115 23.0894 13.3151 21.9922 12.2763 20.9538C11.4035 20.081 10.9839 19.1866 11.0291 18.295C11.0851 17.1838 11.8519 16.3514 12.1387 16.0774C14.0715 16.183 15.6219 18.4506 15.6219 21.2306ZM10.9379 16.2946C10.6059 16.7854 10.2899 17.4506 10.2475 18.2466C10.1879 19.3714 10.6843 20.4686 11.7231 21.507C12.5959 22.3798 13.0155 23.2742 12.9703 24.1658C12.9143 25.2774 12.1471 26.1098 11.8607 26.383C9.92833 26.2778 8.37793 24.0102 8.37793 21.2302C8.37793 18.9102 9.45753 16.9434 10.9379 16.2946Z" fill="#4B4B4B"/>
</g>
<defs>
<clipPath id="clip0_165_20543">
<rect width="24" height="40" fill="white"/>
</clipPath>
</defs>
</svg>
