<svg width="40" height="40" viewBox="0 0 40 40" fill="none" xmlns="http://www.w3.org/2000/svg">
<path d="M20 28.75C25.868 28.75 30.625 23.993 30.625 18.125C30.625 12.257 25.868 7.5 20 7.5C14.132 7.5 9.375 12.257 9.375 18.125C9.375 23.993 14.132 28.75 20 28.75Z" stroke="#4B4B4B" stroke-width="2" stroke-miterlimit="10" stroke-linecap="round" stroke-linejoin="round"/>
<path d="M24.9997 15.625C24.9997 15.625 23.7497 15.625 23.7497 16.875C23.7497 18.125 22.4997 18.125 22.4997 18.125C22.4997 18.125 19.3747 19.375 21.8747 21.875C22.6038 22.6042 23.3862 22.908 24.1286 22.9725C26.1542 23.1487 27.8532 21.5292 28.0801 19.5088C28.2788 17.7396 27.908 15.625 24.9997 15.625Z" stroke="#4B4B4B" stroke-width="2" stroke-miterlimit="10" stroke-linecap="round" stroke-linejoin="round"/>
<path d="M25 20.625C25.3452 20.625 25.625 20.3452 25.625 20C25.625 19.6548 25.3452 19.375 25 19.375C24.6548 19.375 24.375 19.6548 24.375 20C24.375 20.3452 24.6548 20.625 25 20.625Z" stroke="#4B4B4B" stroke-width="2" stroke-miterlimit="10" stroke-linecap="round" stroke-linejoin="round"/>
<path d="M35.735 31.875C34.6785 31.875 33.8586 30.953 33.982 29.9037L35.0001 21.25H37.5001V30.1099C37.5001 31.0847 36.7099 31.875 35.735 31.875Z" stroke="#4B4B4B" stroke-width="2" stroke-miterlimit="10" stroke-linecap="round" stroke-linejoin="round"/>
<path d="M37.5 21.25V8.75C35.0838 8.75 33.125 10.7088 33.125 13.125V17.7465C33.125 19.1544 33.8286 20.4691 35 21.25L37.5 21.25Z" stroke="#4B4B4B" stroke-width="2" stroke-miterlimit="10" stroke-linecap="round" stroke-linejoin="round"/>
<path d="M4.37543 31.875C3.35821 31.875 2.5508 31.0187 2.61054 30.0032L3.12543 17.5H5.62543L6.14033 30.0032C6.20006 31.0187 5.39266 31.875 4.37543 31.875Z" stroke="#4B4B4B" stroke-width="2" stroke-miterlimit="10" stroke-linecap="round" stroke-linejoin="round"/>
<path d="M6.25 13.75H2.5V16.875C2.5 17.2202 2.77982 17.5 3.125 17.5H5.625C5.97018 17.5 6.25 17.2202 6.25 16.875V13.75Z" stroke="#4B4B4B" stroke-width="2" stroke-miterlimit="10" stroke-linecap="round" stroke-linejoin="round"/>
<path d="M2.5 13.75V8.75" stroke="#4B4B4B" stroke-width="2" stroke-miterlimit="10" stroke-linecap="round" stroke-linejoin="round"/>
<path d="M4.375 13.75V8.75" stroke="#4B4B4B" stroke-width="2" stroke-miterlimit="10" stroke-linecap="round" stroke-linejoin="round"/>
<path d="M6.25 13.75V8.75" stroke="#4B4B4B" stroke-width="2" stroke-miterlimit="10" stroke-linecap="round" stroke-linejoin="round"/>
<path d="M23.125 13.75H16.875C16.1846 13.75 15.625 13.1904 15.625 12.5C15.625 11.8096 16.1846 11.25 16.875 11.25H23.125C23.8154 11.25 24.375 11.8096 24.375 12.5C24.375 13.1904 23.8154 13.75 23.125 13.75Z" stroke="#4B4B4B" stroke-width="2" stroke-miterlimit="10" stroke-linecap="round" stroke-linejoin="round"/>
<path d="M17.5 13.75L20 11.25" stroke="#4B4B4B" stroke-width="2" stroke-miterlimit="10" stroke-linecap="round" stroke-linejoin="round"/>
<path d="M20.625 13.75L23.125 11.25" stroke="#4B4B4B" stroke-width="2" stroke-miterlimit="10" stroke-linecap="round" stroke-linejoin="round"/>
<path d="M13.125 18.75H18.125V24.375L13.125 18.75Z" stroke="#4B4B4B" stroke-width="2" stroke-miterlimit="10" stroke-linecap="round" stroke-linejoin="round"/>
</svg>
