<svg width="40" height="40" viewBox="0 0 40 40" fill="none" xmlns="http://www.w3.org/2000/svg">
<g id="2377635_business_chart_graph_marketing_report_icon 1">
<g id="Group">
<path id="Vector" d="M37.6417 35.8407H2.38245C2.06605 35.8407 1.80957 35.5843 1.80957 35.2679V35.2018C1.80957 34.8854 2.06605 34.6289 2.38245 34.6289H37.6417C37.958 34.6289 38.2145 34.8854 38.2145 35.2018V35.2679C38.2145 35.5843 37.958 35.8407 37.6417 35.8407Z" fill="#CAC4D0"/>
<g id="Group_2">
<path id="Vector_2" d="M6.87795 26.9492H5.08691V34.629H6.87795V26.9492Z" fill="#84B2FC"/>
<path id="Vector_3" d="M12.4903 23.249H10.6992V34.6288H12.4903V23.249Z" fill="#007AFF"/>
<path id="Vector_4" d="M18.1016 23.6162H16.3105V34.6283H18.1016V23.6162Z" fill="#84B2FC"/>
<path id="Vector_5" d="M23.7139 17.0918H21.9229V34.6284H23.7139V17.0918Z" fill="#007AFF"/>
<path id="Vector_6" d="M29.3252 14.7041H27.5342V34.6287H29.3252V14.7041Z" fill="#84B2FC"/>
<path id="Vector_7" d="M34.9375 10.0986H33.1465V34.6287H34.9375V10.0986Z" fill="#007AFF"/>
</g>
<path id="Vector_8" d="M5.98264 25.104C5.79784 25.104 5.61488 25.0239 5.48944 24.8692C5.26864 24.5971 5.31032 24.1974 5.58248 23.9766L11.1943 19.4243C11.3348 19.3103 11.5174 19.2616 11.6959 19.2908L16.9009 20.1369L22.287 11.9096C22.3834 11.7624 22.5365 11.6618 22.7098 11.6318L28.114 10.6976L33.5809 4.92108C33.8218 4.66644 34.2235 4.65548 34.478 4.89636C34.7326 5.13724 34.7437 5.53892 34.5027 5.79348L28.8909 11.7232C28.7968 11.8227 28.673 11.889 28.5381 11.9124L23.1979 12.8354L17.7371 21.1769C17.5997 21.3867 17.351 21.4959 17.1043 21.4557L11.773 20.5891L6.382 24.9623C6.2644 25.0576 6.12304 25.104 5.98264 25.104Z" fill="#4CAF50"/>
</g>
</g>
</svg>
