<svg width="40" height="40" viewBox="0 0 40 40" fill="none" xmlns="http://www.w3.org/2000/svg">
<path d="M13.3337 21.6673H26.667V18.334H13.3337V21.6673ZM13.3337 15.0007H26.667V11.6673H13.3337V15.0007ZM21.667 28.334H26.667V25.0007H21.667V28.334ZM31.8503 3.33398C30.8037 3.34384 29.7854 3.67551 28.9337 4.28398C28.6381 4.52066 28.2707 4.64961 27.892 4.64961C27.5133 4.64961 27.1459 4.52066 26.8503 4.28398C26.0003 3.67352 24.9802 3.34515 23.9337 3.34515C22.8871 3.34515 21.867 3.67352 21.017 4.28398C20.7226 4.508 20.3693 4.64123 20.0003 4.66732C19.6372 4.65088 19.288 4.52284 19.0003 4.30065C18.1491 3.67695 17.1223 3.33858 16.067 3.33398C15.0192 3.33724 13.999 3.66955 13.1503 4.28398C12.8547 4.52066 12.4873 4.64961 12.1087 4.64961C11.73 4.64961 11.3626 4.52066 11.067 4.28398C10.2153 3.67551 9.197 3.34384 8.15033 3.33398H6.66699V36.6673H8.15033C9.197 36.6575 10.2153 36.3258 11.067 35.7173C11.3626 35.4806 11.73 35.3517 12.1087 35.3517C12.4873 35.3517 12.8547 35.4806 13.1503 35.7173C14.0003 36.3278 15.0205 36.6562 16.067 36.6562C17.1135 36.6562 18.1336 36.3278 18.9837 35.7173C19.278 35.4933 19.6313 35.3601 20.0003 35.334C20.3634 35.3504 20.7127 35.4785 21.0003 35.7006C21.8424 36.3177 22.8564 36.6557 23.9003 36.6673C24.9481 36.6641 25.9683 36.3318 26.817 35.7173C27.1126 35.4806 27.48 35.3517 27.8587 35.3517C28.2373 35.3517 28.6047 35.4806 28.9003 35.7173C29.752 36.3258 30.7703 36.6575 31.817 36.6673H33.3337V3.33398H31.8503ZM30.0003 32.5007C29.1998 32.1306 28.3156 31.9788 27.4375 32.0607C26.5594 32.1427 25.7185 32.4555 25.0003 32.9673C24.7019 33.1931 24.341 33.3211 23.967 33.334C23.6025 33.3244 23.2512 33.1956 22.967 32.9673C22.1065 32.3369 21.067 31.9982 20.0003 32.0007C18.947 32.0173 17.9238 32.3545 17.067 32.9673C16.7727 33.1998 16.4087 33.3263 16.0337 33.3263C15.6586 33.3263 15.2946 33.1998 15.0003 32.9673C14.2821 32.4555 13.4413 32.1427 12.5632 32.0607C11.685 31.9788 10.8009 32.1306 10.0003 32.5007V7.50065C10.6556 7.81824 11.3723 7.98888 12.1003 8.00065C13.1422 7.97728 14.1528 7.64041 15.0003 7.03398C15.308 6.80168 15.6815 6.67327 16.067 6.66732C16.4315 6.67687 16.7827 6.80567 17.067 7.03398C17.9183 7.65769 18.945 7.99606 20.0003 8.00065C21.0536 7.98399 22.0768 7.64679 22.9337 7.03398C23.2279 6.80147 23.592 6.67499 23.967 6.67499C24.342 6.67499 24.7061 6.80147 25.0003 7.03398C25.8572 7.64679 26.8804 7.98399 27.9337 8.00065C28.6504 7.98408 29.3553 7.81356 30.0003 7.50065V32.5007Z" fill="#84B2FC"/>
</svg>
