<svg width="152" height="30" viewBox="0 0 152 30" fill="none" xmlns="http://www.w3.org/2000/svg">
<g clip-path="url(#clip0_930_35071)">
<path d="M19.4452 13.7571C17.8247 9.45006 12.7501 7.57373 8.44305 7.57373C3.66693 7.57373 0.852431 10.4309 0.170128 15.1643C-0.469531 19.5993 0.937719 24.1196 4.73303 26.5503C8.91213 29.2368 12.2384 28.0428 16.4175 24.4607C19.4452 21.9021 20.8951 17.5098 19.4452 13.7571ZM12.1531 23.1388C12.1531 23.2241 12.0678 23.3093 11.9825 23.3093H11.087C11.0017 23.3093 10.9164 23.2241 10.9164 23.1388V19.2582C10.9164 19.1729 10.8311 19.0876 10.7458 19.0876H7.0358C6.95051 19.0876 6.86522 19.1729 6.86522 19.2582V23.1814C6.86522 23.2667 6.77994 23.352 6.69465 23.352H5.79913C5.71384 23.352 5.62855 23.2667 5.62855 23.1814V12.3925C5.62855 12.3072 5.71384 12.2219 5.79913 12.2219H6.69465C6.77994 12.2219 6.86522 12.3072 6.86522 12.3925V17.6803C6.86522 17.7656 6.95051 17.8509 7.0358 17.8509H11.9825C12.0678 17.8509 12.1531 17.9362 12.1531 18.0215V23.1388ZM14.2 23.1814C14.2 23.2667 14.1147 23.352 14.0294 23.352H13.1339C13.0486 23.352 12.9633 23.2667 12.9633 23.1814V17.126C12.9633 17.0407 12.878 16.9554 12.7927 16.9554H7.84603C7.76075 16.9554 7.67546 16.8701 7.67546 16.7848V15.8893C7.67546 15.804 7.76075 15.7187 7.84603 15.7187H12.7927C12.878 15.7187 12.9633 15.6334 12.9633 15.5481V12.3925C12.9633 12.3072 13.0486 12.2219 13.1339 12.2219H14.0294C14.1147 12.2219 14.2 12.3072 14.2 12.3925V23.1814Z" fill="#FF9500"/>
<path d="M6.695 23.3517H5.79948C5.71419 23.3517 5.62891 23.2665 5.62891 23.1812V12.3923C5.62891 12.307 5.71419 12.2217 5.79948 12.2217H6.695C6.78029 12.2217 6.86558 12.307 6.86558 12.3923V17.6801C6.86558 17.7654 6.95087 17.8507 7.03616 17.8507H11.9829C12.0681 17.8507 12.1534 17.936 12.1534 18.0213V23.1385C12.1534 23.2238 12.0681 23.3091 11.9829 23.3091H11.0873C11.002 23.3091 10.9168 23.2238 10.9168 23.1385V19.2579C10.9168 19.1726 10.8315 19.0874 10.7462 19.0874H7.03616C6.95087 19.0874 6.86558 19.1726 6.86558 19.2579V23.1812C6.86558 23.3091 6.78029 23.3517 6.695 23.3517ZM14.0298 23.3517H13.1342C13.0489 23.3517 12.9637 23.2665 12.9637 23.1812V17.1257C12.9637 17.0404 12.8784 16.9552 12.7931 16.9552H7.84639C7.7611 16.9552 7.67581 16.8699 7.67581 16.7846V15.8891C7.67581 15.8038 7.7611 15.7185 7.84639 15.7185H12.7931C12.8784 15.7185 12.9637 15.6332 12.9637 15.5479V12.3923C12.9637 12.307 13.0489 12.2217 13.1342 12.2217H14.0298C14.115 12.2217 14.2003 12.307 14.2003 12.3923V23.1812C14.2003 23.3091 14.115 23.3517 14.0298 23.3517Z" fill="white"/>
</g>
<path d="M30.808 25.096C30.232 25.096 29.72 24.848 29.272 24.352C28.824 23.84 28.6 23.048 28.6 21.976C28.6 21.224 28.696 20.472 28.888 19.72C29.096 18.968 29.304 18.28 29.512 17.656C29.832 16.632 30.112 15.688 30.352 14.824C30.592 13.96 30.712 13.136 30.712 12.352C30.712 11.808 30.648 11.432 30.52 11.224C30.408 11.016 30.256 10.912 30.064 10.912C29.856 10.912 29.624 11.024 29.368 11.248C29.128 11.472 28.888 11.816 28.648 12.28L28.48 12.232C28.512 11.304 28.712 10.504 29.08 9.832C29.448 9.16 29.912 8.64 30.472 8.272C31.032 7.904 31.608 7.72 32.2 7.72C32.872 7.72 33.448 7.992 33.928 8.536C34.408 9.064 34.648 9.984 34.648 11.296C34.648 11.984 34.576 12.704 34.432 13.456C34.304 14.208 34.152 14.96 33.976 15.712C34.52 15.488 35.096 15.328 35.704 15.232C36.312 15.136 36.96 15.088 37.648 15.088H38.272C38.48 14.288 38.656 13.504 38.8 12.736C38.96 11.952 39.04 11.224 39.04 10.552C39.04 10.312 39.024 10.088 38.992 9.88C38.976 9.672 38.952 9.472 38.92 9.28V9.088C39.16 8.656 39.504 8.312 39.952 8.056C40.416 7.8 40.88 7.672 41.344 7.672C41.872 7.672 42.336 7.848 42.736 8.2C43.136 8.536 43.336 9.08 43.336 9.832C43.336 10.392 43.224 11.112 43 11.992C42.792 12.872 42.552 13.776 42.28 14.704C41.96 15.84 41.664 16.944 41.392 18.016C41.136 19.072 41.008 19.968 41.008 20.704C41.008 21.2 41.088 21.592 41.248 21.88C41.408 22.168 41.664 22.312 42.016 22.312C42.496 22.312 42.856 22.08 43.096 21.616L43.24 21.688C43.224 22.36 43.04 22.952 42.688 23.464C42.336 23.976 41.896 24.376 41.368 24.664C40.856 24.952 40.328 25.096 39.784 25.096C39.304 25.096 38.848 24.976 38.416 24.736C38 24.48 37.656 24.088 37.384 23.56C37.128 23.032 37 22.344 37 21.496C37 20.936 37.056 20.328 37.168 19.672C37.296 19 37.44 18.32 37.6 17.632C36.864 17.584 36.144 17.56 35.44 17.56C35.088 17.56 34.752 17.568 34.432 17.584C34.112 17.6 33.808 17.624 33.52 17.656C33.376 18.296 33.248 18.928 33.136 19.552C33.04 20.16 32.992 20.752 32.992 21.328C32.992 21.648 33.008 21.968 33.04 22.288C33.088 22.592 33.16 22.888 33.256 23.176C33 23.8 32.64 24.28 32.176 24.616C31.728 24.936 31.272 25.096 30.808 25.096ZM46.8539 25.096C46.1339 25.096 45.5259 24.8 45.0299 24.208C44.5499 23.616 44.3099 22.824 44.3099 21.832C44.3099 21.288 44.3739 20.704 44.5019 20.08C44.6299 19.456 44.7579 18.864 44.8859 18.304C44.9979 17.888 45.0859 17.504 45.1499 17.152C45.2299 16.784 45.2699 16.488 45.2699 16.264C45.2699 15.976 45.2059 15.768 45.0779 15.64C44.9659 15.512 44.8299 15.448 44.6699 15.448C44.5099 15.448 44.3499 15.504 44.1899 15.616C44.0299 15.712 43.9019 15.864 43.8059 16.072L43.6139 16C43.6139 15.344 43.7739 14.784 44.0939 14.32C44.4139 13.856 44.8219 13.504 45.3179 13.264C45.8139 13.024 46.3179 12.904 46.8299 12.904C47.2459 12.904 47.6459 12.992 48.0299 13.168C48.4139 13.328 48.7259 13.584 48.9659 13.936C49.2219 14.288 49.3499 14.728 49.3499 15.256C49.3499 15.576 49.3019 15.96 49.2059 16.408C49.1259 16.856 49.0299 17.32 48.9179 17.8C48.8059 18.296 48.6939 18.8 48.5819 19.312C48.4859 19.808 48.4379 20.248 48.4379 20.632C48.4379 20.984 48.4939 21.272 48.6059 21.496C48.7179 21.72 48.8859 21.832 49.1099 21.832C49.5259 21.832 49.9899 21.448 50.5019 20.68C51.0299 19.912 51.4539 18.88 51.7739 17.584C51.8379 17.328 51.8939 17.056 51.9419 16.768C51.9899 16.48 52.0139 16.184 52.0139 15.88C52.0139 15.64 51.9979 15.4 51.9659 15.16C51.9339 14.904 51.8859 14.648 51.8219 14.392V14.224C52.0779 13.792 52.4059 13.464 52.8059 13.24C53.2219 13.016 53.6379 12.904 54.0539 12.904C54.6139 12.904 55.1179 13.096 55.5659 13.48C56.0139 13.864 56.2379 14.424 56.2379 15.16C56.2379 15.592 56.1579 16.096 55.9979 16.672C55.8379 17.232 55.6619 17.816 55.4699 18.424C55.2779 19.016 55.1019 19.6 54.9419 20.176C54.7819 20.752 54.7019 21.264 54.7019 21.712C54.7019 22.368 54.9339 22.696 55.3979 22.696C55.5259 22.696 55.6779 22.664 55.8539 22.6C56.0459 22.52 56.2219 22.368 56.3819 22.144L56.5499 22.192C56.5499 22.768 56.3899 23.28 56.0699 23.728C55.7659 24.16 55.3739 24.496 54.8939 24.736C54.4139 24.976 53.9179 25.096 53.4059 25.096C52.7499 25.096 52.1579 24.856 51.6299 24.376C51.1179 23.896 50.8619 23.112 50.8619 22.024V21.976C50.2059 23.096 49.5259 23.896 48.8219 24.376C48.1179 24.856 47.4619 25.096 46.8539 25.096ZM60.1227 25.072C59.5307 25.072 58.9947 24.84 58.5147 24.376C58.0347 23.896 57.7947 23.232 57.7947 22.384C57.7947 21.968 57.8507 21.496 57.9627 20.968C58.0747 20.44 58.1947 19.904 58.3227 19.36C58.4667 18.816 58.5947 18.304 58.7067 17.824C58.8187 17.344 58.8747 16.952 58.8747 16.648C58.8747 16.328 58.8107 16.08 58.6827 15.904C58.5547 15.712 58.3867 15.616 58.1787 15.616C57.9067 15.616 57.6107 15.776 57.2907 16.096L57.1467 16C57.1307 15.744 57.1867 15.44 57.3147 15.088C57.4427 14.736 57.6347 14.4 57.8907 14.08C58.1627 13.744 58.5067 13.464 58.9227 13.24C59.3387 13.016 59.8347 12.904 60.4107 12.904C61.2587 12.904 61.8827 13.152 62.2827 13.648C62.6987 14.128 62.9067 14.72 62.9067 15.424C62.9067 15.68 62.8827 15.928 62.8347 16.168C63.1707 15.672 63.5867 15.176 64.0827 14.68C64.5787 14.168 65.1227 13.744 65.7147 13.408C66.3227 13.072 66.9467 12.904 67.5867 12.904C68.3387 12.904 68.8507 13.144 69.1227 13.624C69.3947 14.104 69.5307 14.704 69.5307 15.424C69.5307 16.096 69.4587 16.816 69.3147 17.584C69.1707 18.352 69.0267 19.096 68.8827 19.816C68.7387 20.52 68.6667 21.112 68.6667 21.592C68.6667 22.232 68.8507 22.552 69.2187 22.552C69.4107 22.552 69.5787 22.496 69.7227 22.384C69.8667 22.256 69.9627 22.136 70.0107 22.024L70.1787 22.096C70.1787 22.688 70.0107 23.208 69.6747 23.656C69.3547 24.104 68.9467 24.456 68.4507 24.712C67.9547 24.952 67.4507 25.072 66.9387 25.072C66.3147 25.072 65.7627 24.856 65.2827 24.424C64.8027 23.992 64.5627 23.288 64.5627 22.312C64.5627 21.736 64.6347 21.112 64.7787 20.44C64.9387 19.768 65.0907 19.12 65.2347 18.496C65.3787 17.872 65.4507 17.36 65.4507 16.96C65.4507 16.72 65.4027 16.536 65.3067 16.408C65.2267 16.264 65.0747 16.192 64.8507 16.192C64.4827 16.192 64.0747 16.36 63.6267 16.696C63.1947 17.032 62.8187 17.48 62.4987 18.04C62.1947 18.6 62.0427 19.216 62.0427 19.888C62.0427 20.32 62.0907 20.736 62.1867 21.136C62.2987 21.536 62.3547 21.968 62.3547 22.432C62.3547 23.296 62.1307 23.952 61.6827 24.4C61.2347 24.848 60.7147 25.072 60.1227 25.072ZM76.7526 29.8C75.9686 29.8 75.3206 29.568 74.8086 29.104C74.2966 28.64 74.0406 27.984 74.0406 27.136C74.0406 26.224 74.3606 25.152 75.0006 23.92C74.8886 23.952 74.7766 23.976 74.6646 23.992C74.5526 24.008 74.4406 24.016 74.3286 24.016C73.4006 24.016 72.6166 23.616 71.9766 22.816C71.3526 22 71.0406 20.872 71.0406 19.432C71.0406 18.136 71.2886 16.992 71.7846 16C72.2966 15.008 72.9446 14.232 73.7286 13.672C74.5126 13.112 75.3286 12.832 76.1766 12.832C76.7686 12.832 77.3046 12.984 77.7846 13.288C78.2646 13.576 78.6566 14.048 78.9606 14.704C78.9766 14.544 78.9846 14.4 78.9846 14.272C78.9846 14.144 78.9846 14.024 78.9846 13.912C78.9846 13.64 79.1926 13.416 79.6086 13.24C80.0246 13.064 80.4886 12.976 81.0006 12.976C81.4646 12.976 81.8966 13.064 82.2966 13.24C82.6966 13.416 82.9606 13.712 83.0886 14.128L83.1366 14.272C82.9926 14.4 82.8646 14.816 82.7526 15.52C82.6566 16.224 82.5366 17.2 82.3926 18.448C82.2966 19.232 82.1766 20.128 82.0326 21.136C81.8886 22.128 81.6886 23.136 81.4326 24.16C81.1926 25.168 80.8726 26.096 80.4726 26.944C80.0726 27.808 79.5686 28.496 78.9606 29.008C78.3526 29.536 77.6166 29.8 76.7526 29.8ZM75.9606 21.256C76.4246 21.256 76.9366 20.88 77.4966 20.128C78.0726 19.36 78.5286 18.264 78.8646 16.84C78.5766 16.216 78.2806 15.776 77.9766 15.52C77.6886 15.248 77.3926 15.112 77.0886 15.112C76.6886 15.112 76.3126 15.312 75.9606 15.712C75.6086 16.112 75.3206 16.624 75.0966 17.248C74.8886 17.856 74.7846 18.488 74.7846 19.144C74.7846 19.816 74.8966 20.336 75.1206 20.704C75.3446 21.072 75.6246 21.256 75.9606 21.256ZM75.6726 27.04C76.2166 27.04 76.7686 26.504 77.3286 25.432C77.9046 24.376 78.3046 22.88 78.5286 20.944C77.3126 22.592 76.4646 23.864 75.9846 24.76C75.5206 25.64 75.2886 26.264 75.2886 26.632C75.2886 26.904 75.4166 27.04 75.6726 27.04ZM86.608 25.096C86.032 25.096 85.52 24.864 85.072 24.4C84.624 23.92 84.4 23.248 84.4 22.384C84.4 21.968 84.448 21.496 84.544 20.968C84.64 20.44 84.752 19.904 84.88 19.36C85.008 18.8 85.12 18.28 85.216 17.8C85.312 17.304 85.36 16.896 85.36 16.576C85.36 16.24 85.296 15.976 85.168 15.784C85.056 15.576 84.904 15.472 84.712 15.472C84.408 15.472 84.096 15.68 83.776 16.096L83.632 16C83.616 15.744 83.672 15.44 83.8 15.088C83.928 14.736 84.128 14.4 84.4 14.08C84.672 13.744 85.016 13.464 85.432 13.24C85.864 13.016 86.368 12.904 86.944 12.904C87.792 12.904 88.408 13.152 88.792 13.648C89.176 14.128 89.368 14.712 89.368 15.4C89.368 15.512 89.36 15.632 89.344 15.76C89.344 15.872 89.336 15.984 89.32 16.096C89.896 15.056 90.496 14.264 91.12 13.72C91.76 13.16 92.352 12.88 92.896 12.88C93.408 12.88 93.784 13.08 94.024 13.48C94.264 13.88 94.384 14.36 94.384 14.92C94.384 15.432 94.28 15.952 94.072 16.48C93.88 17.008 93.584 17.448 93.184 17.8C92.8 18.136 92.328 18.296 91.768 18.28L91.672 18.232C91.656 17.816 91.52 17.488 91.264 17.248C91.008 17.008 90.72 16.888 90.4 16.888C89.968 16.888 89.56 17.104 89.176 17.536C88.808 17.968 88.624 18.592 88.624 19.408C88.624 19.904 88.68 20.44 88.792 21.016C88.904 21.592 88.96 22.08 88.96 22.48C88.96 22.96 88.848 23.4 88.624 23.8C88.4 24.2 88.112 24.52 87.76 24.76C87.408 24.984 87.024 25.096 86.608 25.096ZM99.5849 29.8C98.7849 29.8 98.1369 29.552 97.6409 29.056C97.1609 28.576 96.9209 27.92 96.9209 27.088C96.9209 26.656 96.9929 26.176 97.1369 25.648C97.2969 25.136 97.5529 24.592 97.9049 24.016C97.1209 23.968 96.4729 23.704 95.9609 23.224C95.4649 22.744 95.2169 22.016 95.2169 21.04C95.2169 20.464 95.2889 19.848 95.4329 19.192C95.5929 18.52 95.7449 17.896 95.8889 17.32C96.0329 16.728 96.1049 16.272 96.1049 15.952C96.1049 15.712 96.0569 15.544 95.9609 15.448C95.8649 15.336 95.7529 15.28 95.6249 15.28C95.4969 15.28 95.3529 15.336 95.1929 15.448C95.0489 15.544 94.9369 15.696 94.8569 15.904L94.4489 15.472C94.5449 14.976 94.7529 14.536 95.0729 14.152C95.3929 13.768 95.7849 13.464 96.2489 13.24C96.7129 13.016 97.1929 12.904 97.6889 12.904C98.2489 12.904 98.7369 13.088 99.1529 13.456C99.5689 13.808 99.7769 14.456 99.7769 15.4C99.7769 15.992 99.7049 16.632 99.5609 17.32C99.4169 17.992 99.2729 18.632 99.1289 19.24C98.9849 19.832 98.9129 20.304 98.9129 20.656C98.9129 20.976 98.9769 21.216 99.1049 21.376C99.2489 21.52 99.4089 21.592 99.5849 21.592C99.8089 21.592 100.065 21.472 100.353 21.232C100.641 20.976 100.913 20.56 101.169 19.984C101.425 19.408 101.593 18.632 101.673 17.656C101.705 17.352 101.729 16.968 101.745 16.504C101.761 16.024 101.777 15.584 101.793 15.184C101.809 14.768 101.817 14.512 101.817 14.416C101.817 13.84 102.025 13.44 102.441 13.216C102.873 12.976 103.345 12.856 103.857 12.856C104.305 12.856 104.729 12.944 105.129 13.12C105.529 13.296 105.801 13.592 105.945 14.008L105.993 14.152C105.849 14.28 105.721 14.712 105.609 15.448C105.513 16.184 105.393 17.168 105.249 18.4C105.153 19.2 105.033 20.104 104.889 21.112C104.745 22.12 104.545 23.136 104.289 24.16C104.049 25.168 103.721 26.096 103.305 26.944C102.905 27.808 102.401 28.496 101.793 29.008C101.185 29.536 100.449 29.8 99.5849 29.8ZM99.0089 27.04C99.5049 27.04 99.9449 26.584 100.329 25.672C100.729 24.776 101.041 23.496 101.265 21.832C100.241 23.144 99.5369 24.176 99.1529 24.928C98.7689 25.68 98.5769 26.224 98.5769 26.56C98.5769 26.88 98.7209 27.04 99.0089 27.04ZM112.643 25.096C112.067 25.096 111.555 24.848 111.107 24.352C110.659 23.84 110.435 23.048 110.435 21.976C110.435 21.224 110.531 20.472 110.723 19.72C110.931 18.968 111.139 18.28 111.347 17.656C111.667 16.632 111.947 15.688 112.187 14.824C112.427 13.96 112.547 13.136 112.547 12.352C112.547 11.808 112.483 11.432 112.355 11.224C112.243 11.016 112.091 10.912 111.899 10.912C111.691 10.912 111.459 11.024 111.203 11.248C110.963 11.472 110.723 11.816 110.483 12.28L110.315 12.232C110.347 11.304 110.547 10.504 110.915 9.832C111.283 9.16 111.747 8.64 112.307 8.272C112.867 7.904 113.443 7.72 114.035 7.72C114.707 7.72 115.283 7.992 115.763 8.536C116.243 9.064 116.483 9.984 116.483 11.296C116.483 11.984 116.411 12.704 116.267 13.456C116.139 14.208 115.987 14.96 115.811 15.712C116.355 15.488 116.931 15.328 117.539 15.232C118.147 15.136 118.795 15.088 119.483 15.088H120.107C120.315 14.288 120.491 13.504 120.635 12.736C120.795 11.952 120.875 11.224 120.875 10.552C120.875 10.312 120.859 10.088 120.827 9.88C120.811 9.672 120.787 9.472 120.755 9.28V9.088C120.995 8.656 121.339 8.312 121.787 8.056C122.251 7.8 122.715 7.672 123.179 7.672C123.707 7.672 124.171 7.848 124.571 8.2C124.971 8.536 125.171 9.08 125.171 9.832C125.171 10.392 125.059 11.112 124.835 11.992C124.627 12.872 124.387 13.776 124.115 14.704C123.795 15.84 123.499 16.944 123.227 18.016C122.971 19.072 122.843 19.968 122.843 20.704C122.843 21.2 122.923 21.592 123.083 21.88C123.243 22.168 123.499 22.312 123.851 22.312C124.331 22.312 124.691 22.08 124.931 21.616L125.075 21.688C125.059 22.36 124.875 22.952 124.523 23.464C124.171 23.976 123.731 24.376 123.203 24.664C122.691 24.952 122.163 25.096 121.619 25.096C121.139 25.096 120.683 24.976 120.251 24.736C119.835 24.48 119.491 24.088 119.219 23.56C118.963 23.032 118.835 22.344 118.835 21.496C118.835 20.936 118.891 20.328 119.003 19.672C119.131 19 119.275 18.32 119.435 17.632C118.699 17.584 117.979 17.56 117.275 17.56C116.923 17.56 116.587 17.568 116.267 17.584C115.947 17.6 115.643 17.624 115.355 17.656C115.211 18.296 115.083 18.928 114.971 19.552C114.875 20.16 114.827 20.752 114.827 21.328C114.827 21.648 114.843 21.968 114.875 22.288C114.923 22.592 114.995 22.888 115.091 23.176C114.835 23.8 114.475 24.28 114.011 24.616C113.563 24.936 113.107 25.096 112.643 25.096ZM128.689 25.096C127.969 25.096 127.361 24.8 126.865 24.208C126.385 23.616 126.145 22.824 126.145 21.832C126.145 21.288 126.209 20.704 126.337 20.08C126.465 19.456 126.593 18.864 126.721 18.304C126.833 17.888 126.921 17.504 126.985 17.152C127.065 16.784 127.105 16.488 127.105 16.264C127.105 15.976 127.041 15.768 126.913 15.64C126.801 15.512 126.665 15.448 126.505 15.448C126.345 15.448 126.185 15.504 126.025 15.616C125.865 15.712 125.737 15.864 125.641 16.072L125.449 16C125.449 15.344 125.609 14.784 125.929 14.32C126.249 13.856 126.657 13.504 127.153 13.264C127.649 13.024 128.153 12.904 128.665 12.904C129.081 12.904 129.481 12.992 129.865 13.168C130.249 13.328 130.561 13.584 130.801 13.936C131.057 14.288 131.185 14.728 131.185 15.256C131.185 15.576 131.137 15.96 131.041 16.408C130.961 16.856 130.865 17.32 130.753 17.8C130.641 18.296 130.529 18.8 130.417 19.312C130.321 19.808 130.273 20.248 130.273 20.632C130.273 20.984 130.329 21.272 130.441 21.496C130.553 21.72 130.721 21.832 130.945 21.832C131.361 21.832 131.825 21.448 132.337 20.68C132.865 19.912 133.289 18.88 133.609 17.584C133.673 17.328 133.729 17.056 133.777 16.768C133.825 16.48 133.849 16.184 133.849 15.88C133.849 15.64 133.833 15.4 133.801 15.16C133.769 14.904 133.721 14.648 133.657 14.392V14.224C133.913 13.792 134.241 13.464 134.641 13.24C135.057 13.016 135.473 12.904 135.889 12.904C136.449 12.904 136.953 13.096 137.401 13.48C137.849 13.864 138.073 14.424 138.073 15.16C138.073 15.592 137.993 16.096 137.833 16.672C137.673 17.232 137.497 17.816 137.305 18.424C137.113 19.016 136.937 19.6 136.777 20.176C136.617 20.752 136.537 21.264 136.537 21.712C136.537 22.368 136.769 22.696 137.233 22.696C137.361 22.696 137.513 22.664 137.689 22.6C137.881 22.52 138.057 22.368 138.217 22.144L138.385 22.192C138.385 22.768 138.225 23.28 137.905 23.728C137.601 24.16 137.209 24.496 136.729 24.736C136.249 24.976 135.753 25.096 135.241 25.096C134.585 25.096 133.993 24.856 133.465 24.376C132.953 23.896 132.697 23.112 132.697 22.024V21.976C132.041 23.096 131.361 23.896 130.657 24.376C129.953 24.856 129.297 25.096 128.689 25.096ZM145.556 25.096C144.916 25.096 144.332 24.96 143.804 24.688C143.276 24.4 142.844 23.984 142.508 23.44C142.492 23.744 142.38 24.024 142.172 24.28C141.964 24.536 141.572 24.664 140.996 24.664C140.356 24.664 139.884 24.488 139.58 24.136C139.276 23.784 139.124 23.32 139.124 22.744C139.124 22.392 139.172 21.888 139.268 21.232C139.364 20.56 139.476 19.808 139.604 18.976C139.748 18.144 139.884 17.28 140.012 16.384C140.156 15.488 140.276 14.616 140.372 13.768C140.468 12.92 140.516 12.16 140.516 11.488C140.516 11.04 140.492 10.648 140.444 10.312C140.396 9.976 140.308 9.712 140.18 9.52V9.376C140.548 8.976 140.932 8.68 141.332 8.488C141.732 8.28 142.116 8.176 142.484 8.176C143.028 8.176 143.492 8.392 143.876 8.824C144.26 9.256 144.452 9.944 144.452 10.888C144.452 11.352 144.404 12.008 144.308 12.856C144.212 13.688 144.092 14.52 143.948 15.352C144.524 14.536 145.132 13.912 145.772 13.48C146.428 13.048 147.06 12.832 147.668 12.832C148.484 12.832 149.18 13.224 149.756 14.008C150.332 14.776 150.62 15.944 150.62 17.512C150.62 18.44 150.508 19.36 150.284 20.272C150.076 21.168 149.756 21.984 149.324 22.72C148.892 23.44 148.356 24.016 147.716 24.448C147.092 24.88 146.372 25.096 145.556 25.096ZM144.356 22.672C144.868 22.672 145.3 22.448 145.652 22C146.02 21.552 146.292 20.984 146.468 20.296C146.66 19.592 146.756 18.872 146.756 18.136C146.756 17.656 146.716 17.2 146.636 16.768C146.556 16.32 146.436 15.96 146.276 15.688C146.116 15.4 145.908 15.256 145.652 15.256C145.204 15.256 144.692 15.784 144.116 16.84C143.556 17.88 143.116 19.36 142.796 21.28C143.084 22.208 143.604 22.672 144.356 22.672Z" fill="#FF9500"/>
<defs>
<clipPath id="clip0_930_35071">
<rect width="20" height="20.4264" fill="white" transform="translate(0 7.57373)"/>
</clipPath>
</defs>
</svg>
